Coordinates
version=1
nRows=8
nColumns=40
inDegrees=yes

Units are S.I. units (second, meters, Newtons, ...)
Angles are in degrees.

endheader
time	pelvis_tilt	pelvis_list	pelvis_rotation	pelvis_tx	pelvis_ty	pelvis_tz	hip_flexion_r	hip_adduction_r	hip_rotation_r	knee_angle_r	knee_angle_r_beta	ankle_angle_r	subtalar_angle_r	mtp_angle_r	hip_flexion_l	hip_adduction_l	hip_rotation_l	knee_angle_l	knee_angle_l_beta	ankle_angle_l	subtalar_angle_l	mtp_angle_l	lumbar_extension	lumbar_bending	lumbar_rotation	arm_flex_r	arm_add_r	arm_rot_r	elbow_flex_r	pro_sup_r	wrist_flex_r	wrist_dev_r	arm_flex_l	arm_add_l	arm_rot_l	elbow_flex_l	pro_sup_l	wrist_flex_l	wrist_dev_l
     33.54000000	     -3.83092470	     -2.23735091	      0.26831431	      1.03500954	      0.93016305	      0.44413988	     30.96029425	     -9.10526792	     -8.27567730	     70.00585970	     70.00585970	      6.09335331	    -17.36236711	      3.98599844	     15.84523761	     -3.25730726	    -11.10229501	     21.82510135	     21.82510135	     13.29648529	     -7.07813522	     -4.30784448	     -8.40200444	      1.47995439	     -0.75245856	      7.31432054	    -14.43565428	     -3.64323395	     76.39747595	     44.67485582	      0.00000000	      0.00000000	     12.78540771	    -10.93036554	      3.70310435	     34.45499805	     44.56356059	      0.00000000	      0.00000000
     33.55121429	     -3.67259132	     -2.36696299	      0.07307609	      1.03398616	      0.93093186	      0.44376937	     31.98528428	     -8.82564875	     -8.02431407	     68.28711546	     68.28711546	      5.85451027	    -17.11001617	      3.66590712	     14.68385949	     -3.25081306	    -10.97551057	     21.10545827	     21.10545827	     13.43200073	     -7.38725879	     -4.62274437	     -8.59598951	      1.70399917	     -0.51154161	      5.44796688	    -14.36541207	     -4.24662988	     71.96521602	     44.85968632	      0.00000000	      0.00000000	     14.74823456	    -11.04428112	      3.73462377	     35.04300217	     44.64170411	      0.00000000	      0.00000000
     33.56242857	     -3.44206925	     -2.55158244	     -0.16279618	      1.03306698	      0.93159019	      0.44346205	     32.80061309	     -8.44600970	     -7.77812070	     66.39306690	     66.39306690	      5.58992552	    -16.85593689	      3.66609090	     13.50665826	     -3.37105464	    -11.09918369	     20.54485600	     20.54485600	     13.80152895	     -7.33311302	     -4.83393697	     -8.93520563	      2.03655309	     -0.02533700	      3.16437059	    -14.75535201	     -4.33206314	     68.87125285	     44.96384220	      0.00000000	      0.00000000	     16.54861340	    -11.04634775	      3.60558725	     36.44574682	     44.70163376	      0.00000000	      0.00000000
     33.57364286	     -3.27280077	     -2.63368047	     -0.40645881	      1.03222335	      0.93208562	      0.44321634	     33.51799258	     -8.15140048	     -7.51373561	     64.23011368	     64.23011368	      5.05876735	    -16.65366756	      2.92748461	     12.36304638	     -3.36914736	    -11.24269996	     19.88907688	     19.88907688	     13.85339807	     -7.47151045	     -5.67201834	     -9.06727624	      2.18832284	     -0.25020179	      2.70281815	    -13.98092869	     -5.76208925	     62.09275373	     45.26096917	      0.00000000	      0.00000000	     17.74495942	    -11.60314009	      3.59086473	     38.40387285	     44.78469180	      0.00000000	      0.00000000
     33.58485714	     -3.13932324	     -2.72206731	     -0.64130318	      1.03136180	      0.93250729	      0.44287649	     34.11952952	     -7.85958043	     -7.32202847	     61.78577536	     61.78577536	      4.54803006	    -16.33669396	      2.52856896	     11.23400364	     -3.32284048	    -11.24535518	     19.15649011	     19.15649011	     13.88095354	     -7.68324156	     -6.30391422	     -9.30585468	      2.38197296	     -0.30731404	      1.91282284	    -13.66472466	     -6.57392717	     56.57035704	     45.48761952	      0.00000000	      0.00000000	     18.86320107	    -12.03183845	      3.42068955	     40.45785437	     44.89113737	      0.00000000	      0.00000000
     33.59607143	     -2.94814311	     -2.80901918	     -0.93908468	      1.03069541	      0.93285398	      0.44262011	     34.53342409	     -7.51800012	     -7.12425752	     59.11744230	     59.11744230	      4.22454489	    -15.89643586	      2.77354885	     10.03040071	     -3.29760425	    -11.40073784	     18.46287019	     18.46287019	     14.17904996	     -7.69411588	     -6.42343293	     -9.61397371	      2.64889762	      0.21888209	      0.03811490	    -14.02735932	     -6.68754549	     53.75366080	     45.58321196	      0.00000000	      0.00000000	     20.44570136	    -12.03533829	      3.19982740	     41.98476352	     44.95783629	      0.00000000	      0.00000000
     33.60728571	     -2.82214887	     -2.69598394	     -1.28104607	      1.03005646	      0.93295493	      0.44242678	     34.93569350	     -7.35577750	     -6.86201091	     56.21879977	     56.21879977	      3.79729339	    -15.37233794	      2.66080904	      8.82789628	     -3.02328130	    -11.56617571	     17.61125468	     17.61125468	     14.23331971	     -7.86529398	     -6.90283973	     -9.84171256	      2.59020031	      0.55181457	     -0.73324391	    -13.84835407	     -7.54067194	     48.26312016	     45.81227149	      0.00000000	      0.00000000	     21.68037320	    -12.26996932	      2.94607776	     44.11685706	     45.04241066	      0.00000000	      0.00000000
     33.61850000	     -2.79969731	     -2.74064044	     -1.56260676	      1.02954645	      0.93290752	      0.44221786	     35.15575211	     -7.07886681	     -6.92187168	     52.83087141	     52.83087141	      3.12745533	    -14.78486868	      1.85666903	      7.71697224	     -2.87361553	    -11.49737913	     16.67377113	     16.67377113	     13.95866262	     -8.42789420	     -7.93579812	     -9.85277811	      2.80975437	     -0.22683417	      0.10144831	    -13.18435401	     -9.42539156	     40.98897224	     46.16248905	      0.00000000	      0.00000000	     21.88731829	    -13.19967418	      2.35535308	     46.93961745	     45.19096206	      0.00000000	      0.00000000
